<?xml version="1.0" encoding="utf-8"?>
<svg version="1.0" xmlns="http://www.w3.org/2000/svg" viewBox="170 80 260 290">
<style type="text/css">
	.st0{fill:#010202;}
</style>
<g transform="translate(-4.382 -1.643)">
	<path class="st0" d="M217.1,181c-0.2-42.5,29.7-79.3,71.4-87.8c-26.7-9.4-57.1-10.7-76.3,1.5c-37.7,24.3,30.1,100.9-28.6,99.7
		c0,0,7.9,19.1,40.7,23.1C219.7,205.9,217.2,193.5,217.1,181z"/>
	<path class="st0" d="M304.9,276.4c-32.5,0-58.3-42.8-60.1-81.4c34.3-2.7,85.1-33.1,93.6-38.6c16.3,2.8,27.7,17.6,26.4,34
		C365.1,230.2,339,276.4,304.9,276.4z"/>
	<g transform="translate(8.362 3.04)">
		<path class="st0" d="M227.3,187.4c0.1-2.5,2.1-4.5,4.6-4.6c34,0,94.2-37.7,94.8-38c0.7-0.5,1.6-0.7,2.4-0.6
			c20.3,0,37.1,19.4,37.1,43.4c0,13.1-2.3,26.2-6.7,38.6c26.1-34.7,19.1-84.1-15.6-110.2S259.8,97,233.7,131.7
			c-21.1,28-21.1,66.6,0,94.6C229.5,213.7,227.4,200.6,227.3,187.4z"/>
	</g>
	<g transform="translate(4.382 19.018)">
		<path class="st0" d="M335.5,252.5c-9.5,8.9-21.9,14-34.9,14.3c-13-0.5-25.4-5.5-34.9-14.3c-20,29.2-86.3,10-86.3,70.5v26.4h242.4
			v-26.4C421.8,262.3,355.5,281.4,335.5,252.5z"/>
	</g>
</g>
</svg>
